PathFileType  4	(X/Y/Z) C:\Users\antoi\Documents\MyRepositories\mobilecap\ResultsAnalysis
DataRate	CameraRate	NumFrames	NumMarkers	Units	OrigDataRate	OrigDataStartFrame	OrigNumFrames
100.0	100.0	7	51	mm	100.0	129	256
Frame#	Time	r_knee			r_shank_antsup			r_ankle			r_calc			r_5meta			r_toe			L_knee			L_shank_antsup			L_ankle			L_calc			L_5meta			L_toe			r_sh2			r_sh3			r_sh4			L_sh2			L_sh3			r_thigh1			r_thigh2			r_thigh3			r_thigh4			r_thigh5			L_thigh1			L_thigh2			L_thigh3			L_thigh4			r.ASIS			r.PSIS			L.ASIS			L.PSIS			C7			R_Shoulder			L_Shoulder			R_Sternum			L_Sternum			R_humerus			R_elbow_med			R_elbow_lat			R_forearm			R_wrist_radius			R_wrist_ulna			L_humerus			L_elbow_med			L_elbow_lat			L_forearm			L_wrist_radius			L_wrist_ulna			R_HJC			L_HJC			R_HJC_reg			L_HJC_reg			
		X1	Y1	Z1	X2	Y2	Z2	X3	Y3	Z3	X4	Y4	Z4	X5	Y5	Z5	X6	Y6	Z6	X7	Y7	Z7	X8	Y8	Z8	X9	Y9	Z9	X10	Y10	Z10	X11	Y11	Z11	X12	Y12	Z12	X13	Y13	Z13	X14	Y14	Z14	X15	Y15	Z15	X16	Y16	Z16	X17	Y17	Z17	X18	Y18	Z18	X19	Y19	Z19	X20	Y20	Z20	X21	Y21	Z21	X22	Y22	Z22	X23	Y23	Z23	X24	Y24	Z24	X25	Y25	Z25	X26	Y26	Z26	X27	Y27	Z27	X28	Y28	Z28	X29	Y29	Z29	X30	Y30	Z30	X31	Y31	Z31	X32	Y32	Z32	X33	Y33	Z33	X34	Y34	Z34	X35	Y35	Z35	X36	Y36	Z36	X37	Y37	Z37	X38	Y38	Z38	X39	Y39	Z39	X40	Y40	Z40	X41	Y41	Z41	X42	Y42	Z42	X43	Y43	Z43	X44	Y44	Z44	X45	Y45	Z45	X46	Y46	Z46	X47	Y47	Z47	X48	Y48	Z48	X49	Y49	Z49	X50	Y50	Z50	X51	Y51	Z51	

129	1.28000000	-70.30119	547.43071	-281.06599	-126.56704	422.34111	-251.78014	-282.61774	111.54961	-311.42435	-345.20673	88.53093	-378.01243	-163.28805	40.19082	-275.85128	-119.36062	62.28895	-324.90828	-67.48115	534.96238	-774.22717	-82.42957	341.68968	-796.44556	-304.59335	136.09457	-832.61778	-366.42361	91.14741	-771.55778	-203.66308	55.73194	-919.98232	-147.47441	67.75433	-867.70837	-179.74870	323.67555	-256.76834	-65.56684	400.68817	-288.67848	-116.73786	300.21563	-305.09086	-142.44429	394.14305	-834.97623	-209.55308	295.51013	-835.47162	-302.07381	718.15373	-291.83919	-196.75809	680.66060	-275.26252	-199.66213	612.20050	-269.76907	-339.91204	613.51124	-315.41042	-228.58978	571.48062	-295.48878	-327.48321	654.28733	-750.38604	-208.66529	590.21034	-781.64293	-263.74768	741.45768	-722.02246	-149.41316	674.84330	-745.92161	-376.05153	817.18055	-373.14846	-538.83514	893.71742	-480.55671	-361.66400	798.95266	-648.71070	-529.18814	890.40661	-568.75455	-167.74294	1242.12740	-575.56710	-98.29085	1167.60549	-405.72739	-142.12997	1147.40778	-738.26941	-95.40112	1091.23199	-542.73965	-101.97664	1080.62111	-589.65876	-124.88069	966.48605	-239.01647	-221.51002	852.21495	-188.00291	-176.25065	908.77896	-134.12566	-5.23761	801.79309	-217.18599	54.58667	761.43046	-258.04664	60.18825	749.18896	-223.96304	-141.77199	900.12419	-861.97781	-234.35374	802.34375	-871.27856	-185.63608	834.22098	-935.12577	-0.34270	798.54069	-846.35231	54.19913	791.11968	-802.40891	60.37847	773.11608	-831.13258	-474.98367	745.51123	-414.38251	-467.80143	738.25386	-611.59615	-468.02696	749.28663	-420.35238	-448.19317	742.48137	-601.66020	
130	1.29000000	-67.75057	549.05267	-279.38814	-124.54246	424.33643	-250.79073	-280.83689	114.17273	-311.86392	-343.28249	92.34935	-378.99849	-162.93848	40.83896	-276.21900	-118.51634	62.39364	-325.08303	-63.03622	531.21094	-771.35620	-79.52220	339.29338	-794.64748	-304.44614	136.24742	-832.04654	-366.49314	91.24871	-771.28853	-203.74745	55.86041	-919.78484	-147.56247	67.75079	-867.56337	-177.97053	325.94877	-256.48683	-63.15811	402.34630	-286.89083	-114.62867	302.06523	-304.14266	-138.63493	392.47585	-832.79904	-207.15518	294.88428	-833.89054	-304.15448	714.76214	-291.84894	-197.84201	680.35111	-275.16967	-198.87067	612.07433	-267.29559	-339.38562	608.20634	-312.25168	-226.73928	569.81897	-291.83195	-325.90912	643.90347	-748.81503	-205.44260	582.35312	-779.58087	-264.69350	731.69713	-720.69270	-147.72829	668.27648	-743.82538	-374.94970	804.08544	-372.02556	-536.65966	882.38449	-480.98416	-359.79050	785.55937	-649.17063	-526.17121	878.41167	-569.50205	-156.95666	1220.82382	-574.97733	-88.44775	1145.82069	-405.87473	-132.07095	1124.76220	-736.80399	-87.23621	1069.50053	-541.96638	-94.24751	1058.11063	-588.51684	-102.19789	945.52616	-240.78037	-194.37147	828.72333	-184.80129	-147.81970	885.95404	-133.13444	23.56215	784.75273	-222.12226	83.29613	747.00523	-264.69895	90.55355	734.47007	-230.88726	-121.99176	878.46703	-858.26528	-211.96401	778.00670	-870.84158	-162.64635	810.98880	-933.51684	21.81592	780.98504	-841.37934	75.63155	775.31787	-796.27263	82.77034	757.93905	-825.21728	-474.46109	733.41455	-414.51323	-466.50696	725.88616	-611.68772	-468.32614	737.35788	-420.09561	-446.74685	729.18351	-602.23577	
131	1.30000000	-65.55890	550.95609	-278.15285	-122.60206	427.68131	-249.91656	-278.80775	116.70477	-311.54438	-341.57564	96.53076	-378.37104	-162.39060	41.22145	-276.10845	-117.67017	62.43638	-324.80241	-59.12411	527.43677	-768.01248	-77.42380	336.36888	-792.67764	-304.67892	136.08145	-832.52558	-367.23085	90.86553	-772.25972	-203.78998	55.51378	-920.22192	-147.83187	67.72716	-867.79278	-176.86941	329.59936	-255.71485	-60.78208	404.57038	-284.80635	-112.98780	304.69189	-302.09959	-135.38288	390.56759	-830.85444	-205.36096	294.02246	-832.88405	-306.51765	710.99687	-291.46266	-199.33473	679.58767	-274.62390	-198.45671	611.26104	-265.65876	-338.77559	602.95056	-310.64361	-224.93821	567.84888	-289.88772	-324.91478	633.94087	-746.87532	-202.86590	575.28613	-777.37330	-266.76553	722.79850	-719.28713	-146.70412	662.18882	-741.06855	-374.08134	792.48113	-370.43197	-534.55292	871.73678	-481.35429	-357.82873	772.04968	-647.79563	-523.26072	867.15002	-570.13387	-146.68930	1200.25354	-574.46317	-79.61451	1124.76934	-405.61620	-122.37032	1103.24814	-735.17862	-79.82732	1048.16124	-540.66321	-86.73991	1036.63673	-587.04909	-80.28520	925.96683	-242.70109	-166.35850	806.27223	-182.25556	-119.52297	864.56843	-132.85432	51.79328	769.56068	-227.40479	111.30822	734.21903	-272.08271	120.04648	721.45524	-238.53803	-103.10196	858.56672	-854.56299	-190.45384	755.31091	-870.64464	-140.30195	789.43286	-931.66156	43.12145	764.99027	-836.33884	96.16374	760.90284	-789.98523	104.35017	744.16671	-819.13082	-474.28457	722.64749	-413.48753	-465.15472	713.68354	-610.54491	-468.26749	726.06393	-419.05766	-445.10084	716.65458	-601.21965	
132	1.31000000	-63.48936	552.26137	-277.52369	-120.13006	430.42282	-249.00323	-277.04461	118.75569	-309.68338	-340.62807	99.84262	-376.20279	-161.82993	41.17766	-275.60929	-117.10302	62.43259	-324.23803	-55.18232	523.88117	-764.58660	-75.46506	333.50515	-790.87678	-304.92620	136.00196	-833.45497	-368.02440	90.51253	-773.76509	-203.82805	54.97059	-920.82630	-148.14557	67.71388	-868.18754	-175.36421	332.73307	-254.30503	-58.36061	406.28158	-283.42551	-111.43146	306.75046	-300.19969	-132.43492	388.74032	-828.92933	-203.63926	293.10368	-832.19112	-308.44709	706.02164	-290.54511	-200.67212	677.00215	-273.59482	-198.08533	608.58534	-265.06850	-337.93947	596.87198	-310.76396	-223.25358	564.54254	-289.75336	-323.80082	624.65116	-744.65851	-200.22609	568.91365	-774.84564	-268.21856	715.34056	-717.78094	-146.10303	656.74129	-737.56384	-373.38184	782.53229	-368.56690	-532.55896	861.67219	-481.98296	-355.56209	759.23990	-645.77348	-520.43958	856.58801	-570.76951	-136.86116	1180.51317	-574.09438	-71.27904	1104.92883	-404.88088	-112.91006	1082.77306	-733.51171	-72.94377	1027.63204	-538.97662	-79.65917	1016.21131	-585.26023	-59.24941	907.73037	-244.64653	-138.48882	785.01411	-180.55277	-91.72140	844.68952	-132.88313	79.24669	755.93976	-233.25846	138.37039	722.77114	-280.07512	148.50152	710.15117	-246.84090	-85.18334	839.94043	-850.60764	-169.85416	734.07204	-870.06971	-118.91096	769.34542	-929.44106	63.40295	750.46748	-831.15646	115.67460	747.81850	-783.71008	124.96170	731.59463	-812.83641	-474.00643	713.07089	-412.01905	-463.36447	702.04355	-608.89693	-467.80005	715.40002	-417.72297	-442.95573	704.97752	-599.71891	
133	1.32000000	-61.49946	552.56019	-277.58758	-117.32059	431.46534	-248.28345	-275.96487	119.98387	-307.10662	-340.47339	101.63276	-373.61546	-161.45202	40.79368	-275.06727	-116.89024	62.40756	-323.73306	-51.24260	520.76880	-761.19259	-73.38422	330.92364	-788.74522	-304.98982	136.16426	-834.23301	-368.52224	90.49034	-775.10378	-203.79853	54.55900	-921.34209	-148.36753	67.67929	-868.47972	-173.23366	334.19815	-252.86858	-56.13695	406.92232	-283.14081	-109.90340	307.61514	-299.28466	-129.48300	387.15013	-826.95894	-201.70937	292.35901	-831.37574	-309.82971	699.94095	-289.09251	-201.59031	672.88065	-272.56597	-197.61154	604.45279	-265.16788	-337.05945	590.06468	-311.58672	-221.89312	560.45681	-290.63655	-322.10070	616.59349	-742.72907	-197.15956	563.72724	-772.93933	-268.25550	708.72082	-715.13614	-145.22263	651.98334	-733.35041	-372.54552	773.65100	-366.78442	-530.47272	852.30127	-482.88720	-352.98531	748.06376	-644.59947	-517.77077	846.72695	-571.50655	-127.48698	1161.73035	-573.62147	-63.24242	1086.25778	-403.96172	-103.81017	1063.05932	-731.72127	-66.48322	1008.10489	-537.20757	-73.19465	996.61924	-583.01400	-39.32611	890.97761	-246.44768	-111.39262	765.39905	-179.34744	-64.64441	826.48112	-132.98633	105.58594	743.82061	-239.65710	164.12948	712.65321	-288.46461	175.67711	700.42279	-255.71612	-68.26018	822.32653	-846.51855	-149.92078	714.08392	-868.49758	-98.55297	750.73197	-926.91826	82.50823	737.14782	-825.76444	134.04208	736.00137	-777.52675	144.30499	720.05696	-806.38933	-473.19730	704.22287	-411.08504	-461.07841	691.54551	-607.78434	-466.92647	705.78629	-416.35210	-440.78654	694.31443	-598.71707	
134	1.33000000	-59.88396	551.68193	-278.18607	-115.16412	430.85325	-248.07307	-275.86569	119.93291	-305.63626	-340.82759	101.79467	-371.81298	-161.34080	40.41442	-274.74252	-116.96162	62.34512	-323.49036	-47.48716	518.10692	-757.85087	-71.18187	328.83028	-786.09376	-304.70724	136.47126	-834.40721	-368.58609	90.87653	-775.92411	-203.65366	54.48353	-921.51298	-148.27199	67.64294	-868.46736	-171.49561	333.89237	-252.14762	-54.57752	406.31315	-283.69145	-108.87034	307.13446	-299.38805	-126.42471	385.71840	-824.84903	-199.54363	291.74797	-830.26506	-310.79416	693.92760	-287.71507	-202.10740	668.54541	-272.35398	-197.12672	600.12390	-265.49046	-336.49213	583.77111	-311.56505	-221.16430	556.32459	-291.46695	-319.78819	610.09762	-741.16615	-193.82642	559.88127	-771.88018	-267.39825	702.38122	-710.92372	-143.42162	647.83960	-728.56261	-371.34677	765.21275	-365.15539	-528.22542	843.67733	-483.90497	-350.40955	737.86294	-643.98117	-515.18720	837.48872	-572.25055	-118.56250	1143.95572	-572.93483	-55.89737	1067.82801	-403.47529	-95.07678	1044.23745	-729.95591	-60.37945	989.64417	-535.70759	-67.34875	977.70071	-580.50979	-20.61259	875.87947	-248.29903	-85.03242	747.46210	-178.83530	-38.42113	810.02233	-133.69761	130.59531	733.21839	-246.56329	188.46692	703.90974	-297.20772	201.31028	692.12858	-265.19407	-52.33927	805.99794	-842.90681	-130.70802	695.46152	-866.24566	-79.28976	733.50485	-924.08871	100.37185	724.85753	-820.17509	151.23477	725.29320	-771.34634	162.26503	709.47882	-799.90988	-472.08818	695.90121	-410.50201	-458.76324	681.89069	-607.03044	-465.88405	697.16884	-414.92060	-438.87780	684.35011	-597.91737	
135	1.34000000	-58.70892	549.89699	-279.03125	-114.22892	429.32077	-248.48115	-276.56633	118.96696	-305.78078	-341.33286	100.69981	-371.39726	-161.46051	40.27274	-274.65737	-117.19278	62.25863	-323.53451	-43.83740	515.79744	-754.50400	-68.80765	327.12195	-782.91955	-304.05487	136.86024	-833.77485	-368.24998	91.56221	-775.91302	-203.41250	54.87427	-921.19983	-147.89290	67.72720	-868.19624	-170.85313	332.42635	-252.46839	-53.85294	404.69018	-284.72639	-108.63304	305.38063	-300.38419	-123.30850	384.40184	-822.34424	-197.11141	291.10448	-828.68668	-311.41815	688.95602	-287.12284	-202.29335	664.93098	-273.26948	-196.54879	596.51365	-266.07046	-336.19076	578.74987	-310.20726	-220.70943	552.27466	-291.67847	-317.18521	604.73890	-739.24423	-190.40699	556.74645	-770.46743	-266.19054	696.51578	-706.20050	-141.15878	644.20744	-723.68620	-369.93889	756.98653	-363.61502	-525.90999	835.63171	-484.89650	-348.08784	727.59157	-643.05664	-512.57739	828.69383	-572.84943	-110.04187	1127.19323	-572.14540	-49.33766	1049.55983	-403.54335	-86.58262	1026.71721	-728.55239	-54.64343	972.26173	-534.39275	-61.81633	959.92230	-578.51170	-2.89468	862.43547	-250.70338	-59.65572	731.28483	-179.39291	-13.41689	795.29321	-135.71136	154.17261	724.05801	-254.05845	211.38152	696.49909	-306.40275	225.42447	685.29456	-275.14605	-37.43270	791.09788	-839.92508	-112.46525	678.29119	-863.80511	-61.17464	717.57997	-921.14494	117.02241	713.53549	-814.48020	167.26047	715.54752	-765.07399	178.97875	699.77259	-793.48497	-471.11772	688.06953	-409.69841	-456.81867	672.47985	-606.03577	-464.96213	689.11800	-413.44402	-437.16767	674.65363	-596.79479	
